PathFileType	4	(X/Y/Z)	/mnt/D494C4CF94C4B4F0/Trampoline_predictions/poses3d/1_partie_0429.trc
DataRate	CameraRate	NumFrames	NumMarkers	Units	OrigDataRate	OrigDataStartFrame	OrigNumFrames
120	120	7	17	m	120	1527	1746
Frame#	Time	Nose			L Eye			R Eye			L Ear			R Ear			L Shoulder			R Shoulder			L Elbow			R Elbow			L Wrist			R Wrist			L Hip			R Hip			L Knee			R Knee			L Ankle			R Ankle			
		X1	Y1	Z1	X2	Y2	Z2	X3	Y3	Z3	X4	Y4	Z4	X5	Y5	Z5	X6	Y6	Z6	X7	Y7	Z7	X8	Y8	Z8	X9	Y9	Z9	X10	Y10	Z10	X11	Y11	Z11	X12	Y12	Z12	X13	Y13	Z13	X14	Y14	Z14	X15	Y15	Z15	X16	Y16	Z16	X17	Y17	Z17	
1527	12.725	-0.17284186050021888	0.1798049592508313	5.468410725508133	-0.18645405636327414	0.19158897986425624	5.494817857814407	-0.19470830019490262	0.1575520188699873	5.4965793537437975	-0.2425122083262252	0.2041728134011729	5.487499140436383	-0.2504408839755286	0.10054368849371921	5.485852537963232	-0.30655956730645895	0.2930154798177665	5.386924345788332	-0.3292332957675889	0.030233364345649848	5.359598202795832	-0.2537777354934563	0.49793512690226155	5.512835118307793	-0.21911008890393102	-0.17712661904127736	5.415075643835828	-0.17686850190167405	0.6434390995629823	5.684162196798818	-0.14991558433970908	-0.0220668386278356	5.547360472523561	-0.37642996881690355	0.2545770945852398	4.931025303944499	-0.4037678891596419	0.08645107389845703	4.931202566828006	-0.336097504084754	0.2503669667445528	4.539868240507625	-0.34570818599643305	0.09853049225576303	4.533367743592721	-0.33570872799719387	0.20237799671618883	4.170084357598842	-0.3484664237125963	0.14189218662979972	4.162003719147377
1528	12.733333333333	-0.15147022488045506	0.18338003673692582	5.472399938009096	-0.1699318393160203	0.1944686930507331	5.500128704481224	-0.17559255954222922	0.16694688425751897	5.506680497615369	-0.23441121950390487	0.20145000926048487	5.492880460973626	-0.24157882033439157	0.11424302282170667	5.503419232672892	-0.3087048730996218	0.292973965910639	5.386830668544022	-0.3358852652117759	0.035609206630774846	5.368079217403996	-0.2716279976920521	0.5122040411925555	5.504539476711522	-0.22191495914339687	-0.18570974956518052	5.4034290661616176	-0.19336397636957642	0.6638209924819088	5.661759783216272	-0.15083178835943614	-0.03728249117303204	5.537839796444976	-0.38184291425296407	0.23476417691957321	4.9296548272322065	-0.4099387491471965	0.08740639268588746	4.92430468321643	-0.3429728667094085	0.24553554424045007	4.528081494148745	-0.34600866268954933	0.10748728605041159	4.534394067753016	-0.3342397375239866	0.19168746433815964	4.1638043843549575	-0.34283013415449054	0.14651247278445814	4.159438539467258
1529	12.741666666667	-0.1544885824584409	0.18805534275017985	5.475732654174729	-0.17069936451265338	0.20156285094004883	5.504942119603262	-0.17490537916515284	0.16632634437659566	5.51130048782447	-0.23543040739873256	0.21595430751700634	5.5085085794548565	-0.24767065856124654	0.11858629559146137	5.517061027318099	-0.30762868280295086	0.28689000929897124	5.391163441876629	-0.33940695648377633	0.04039561904947726	5.387618088345462	-0.2706904514646565	0.5059544367187856	5.4932691772336195	-0.2182876743233327	-0.19486587357880822	5.395190999636277	-0.18067835252372133	0.6599069816945011	5.645444683155935	-0.14269858775696512	-0.06161730716182027	5.522515889203112	-0.38697988178008674	0.24683277837941617	4.942526821973732	-0.4193168206495375	0.0762323030721595	4.940587069387023	-0.33498160662978543	0.25092968522789433	4.564156652483199	-0.35286425284378015	0.08551548108208425	4.550955318565588	-0.3314817244513931	0.20270422189117615	4.187713928628835	-0.3413730204290588	0.13155641534674412	4.172173718424273
1530	12.75	-0.14628731455192304	0.1717816346344684	5.474619610198652	-0.16258693653486073	0.1846951854888533	5.50384593197474	-0.16496413955805037	0.15566975832012866	5.509712169536802	-0.23085962904277352	0.20529191074084166	5.508232656986546	-0.23679857532722107	0.1250305291734582	5.516263625884777	-0.3122834646950698	0.29978221461883875	5.3971565893844575	-0.3221198084303564	0.03466025373418042	5.382237292456421	-0.27739549509144956	0.5433462059424166	5.492307692183889	-0.22889608879804096	-0.20389277361120306	5.377455173489892	-0.1959188181610109	0.7037760397908068	5.647630288526519	-0.14427320685820477	-0.05609098042336014	5.514659714216166	-0.38831550984399604	0.22340758130036176	4.93965682145789	-0.42064565857850567	0.09368637759387609	4.940589201514922	-0.3340605218822081	0.2299280015694643	4.56235298497768	-0.35734553975187006	0.12299213208165748	4.5657394183117885	-0.32712491459201976	0.19119240921615946	4.1911078758218885	-0.3371779455246585	0.14672612927556847	4.182873737998633
1531	12.758333333333	-0.13497720196378213	0.18256862977373534	5.477316673100612	-0.15070691201705744	0.19954443459554644	5.5088855920194435	-0.15568090686295277	0.16154756113457938	5.513438414904185	-0.2250717542034893	0.23010497261471974	5.5220596480903605	-0.2377128125989617	0.12212894391613333	5.5229251217088375	-0.314239636830694	0.30449553327054013	5.4008383309121255	-0.33081679382404405	0.042135670956506936	5.394923289182994	-0.281797991917586	0.533900158094877	5.479222564739669	-0.2297629924048172	-0.20000576416283544	5.37383801606421	-0.18231630111062955	0.701419722719904	5.61734729204381	-0.1443106206062711	-0.057295928765375495	5.509885567364915	-0.3959935397826618	0.24206343600077257	4.953165386161114	-0.42242218543488724	0.08486344552892944	4.946736680121422	-0.3455744274520344	0.25268048071285415	4.563416073246773	-0.3508307492709347	0.09622521068417436	4.558821645181717	-0.327721178019246	0.19867863348060427	4.193858675948316	-0.3283471216711225	0.13763363614980434	4.179427040571115
1532	12.766666666667	-0.13855102621968993	0.18369380484309783	5.4721034353514195	-0.1491271589236323	0.19478956096859415	5.50482787570365	-0.15994414191884304	0.1603550598011741	5.50692246589428	-0.21573735427921675	0.21174443299476853	5.511535110679639	-0.23969579145308662	0.12320627786850152	5.5180350227637405	-0.29948621485726595	0.2862645694333601	5.3866290044875464	-0.3337427884705643	0.047034487297168776	5.383350584712743	-0.2843657552545391	0.5625186832265759	5.4730672978605	-0.2574281310207681	-0.18900460519932702	5.3713268072922755	-0.1722265135774123	0.7115616657378593	5.59909740097619	-0.15164991648802603	-0.0589773870612572	5.501508790457969	-0.3875087289429232	0.23719973887969595	4.953700499337442	-0.4275817391880438	0.07971377607669139	4.951103646608889	-0.33573822406673315	0.2504779778753158	4.571102683660491	-0.36003006832509765	0.10704833072132398	4.5697945279349925	-0.31927884652679706	0.20357703018544548	4.196969218610686	-0.33108851595854033	0.13821481828818658	4.190830393934493
1533	12.775	-0.15095593852580064	0.17485409880524966	5.469933932373882	-0.16645621560905036	0.19075174716961865	5.50471461817699	-0.16983271029457092	0.15652809579845484	5.509906302374015	-0.23210451259350998	0.20673434584315348	5.514002394611854	-0.24459882815684364	0.12646505594841992	5.523653146325806	-0.3083072460215304	0.31431273693383727	5.399140464520258	-0.3315645814305563	0.01724226365666141	5.378221651120507	-0.26573470179176534	0.5358173865024877	5.460859719759412	-0.2265458305549604	-0.20802268829498474	5.349105513828163	-0.17581246969629358	0.7028492821845733	5.584821343342909	-0.13109772192903918	-0.08531625229267396	5.4790622248703515	-0.4020246630141018	0.20854304387254408	4.951995042782488	-0.4301282714187081	0.09548787631342188	4.952281607644536	-0.34165559373976256	0.2262712242534865	4.565364172627251	-0.3603173523643354	0.14279009408650356	4.570345154770129	-0.3183338295289462	0.17426866098062443	4.198959397168448	-0.3256074819297554	0.15828564839843412	4.197655465642844
